<?xml version="1.0" encoding="UTF-8"?>
<svg width="120px" height="120px" viewBox="0 0 120 120" version="1.1" xmlns="http://www.w3.org/2000/svg" xmlns:xlink="http://www.w3.org/1999/xlink">
    <!-- Generator: Sketch 62 (91390) - https://sketch.com -->
    <title>Untitled</title>
    <desc>Created with Sketch.</desc>
    <g id="Page-1" stroke="none" stroke-width="1" fill="none" fill-rule="evenodd">
        <g id="noun_circuit_2582332" fill="#000000" fill-rule="nonzero">
            <g id="Group">
                <rect id="Rectangle" x="53.937" y="53.936" width="12.127" height="12.127"></rect>
                <path d="M47.774,72.226 L72.226,72.226 L72.226,47.774 L47.774,47.774 L47.774,72.226 Z M52.193,53.065 C52.193,52.583 52.583,52.193 53.065,52.193 L66.935,52.193 C67.416,52.193 67.807,52.583 67.807,53.065 L67.807,66.935 C67.807,67.416 67.417,67.807 66.935,67.807 L53.065,67.807 C52.584,67.807 52.193,67.417 52.193,66.935 L52.193,53.065 L52.193,53.065 Z" id="Shape"></path>
                <path d="M60,0 C26.863,0 0,26.863 0,60 C0,93.137 26.863,120 60,120 C93.137,120 120,93.137 120,60 C120,26.863 93.137,0 60,0 Z M75.851,53.454 L85.938,53.454 C86.419,53.454 86.81,53.844 86.81,54.326 C86.81,54.808 86.42,55.198 85.938,55.198 L75.851,55.198 C75.37,55.198 74.979,54.808 74.979,54.326 C74.979,53.844 75.37,53.454 75.851,53.454 Z M66.063,34.062 C66.063,33.58 66.453,33.19 66.935,33.19 C67.417,33.19 67.807,33.58 67.807,34.062 L67.807,44.149 C67.807,44.631 67.417,45.021 66.935,45.021 C66.453,45.021 66.063,44.631 66.063,44.149 L66.063,34.062 Z M53.065,24.542 L57.817,24.542 C59.849,24.542 61.502,26.195 61.502,28.227 L61.502,44.149 C61.502,44.631 61.112,45.021 60.63,45.021 C60.148,45.021 59.758,44.631 59.758,44.149 L59.758,28.227 C59.758,27.157 58.887,26.285 57.816,26.285 L53.064,26.285 C52.583,26.285 52.192,25.895 52.192,25.413 C52.193,24.933 52.584,24.542 53.065,24.542 Z M55.198,34.062 L55.198,44.149 C55.198,44.631 54.808,45.021 54.326,45.021 C53.844,45.021 53.454,44.631 53.454,44.149 L53.454,34.062 C53.454,33.58 53.844,33.19 54.326,33.19 C54.808,33.19 55.198,33.581 55.198,34.062 Z M44.149,66.546 L34.062,66.546 C33.581,66.546 33.19,66.156 33.19,65.674 C33.19,65.192 33.58,64.802 34.062,64.802 L44.149,64.802 C44.63,64.802 45.021,65.192 45.021,65.674 C45.021,66.155 44.63,66.546 44.149,66.546 Z M44.149,60.241 L28.227,60.241 C27.157,60.241 26.286,61.112 26.286,62.183 L26.286,66.936 C26.286,67.417 25.896,67.808 25.414,67.808 C24.933,67.808 24.542,67.418 24.542,66.936 L24.542,62.183 C24.542,60.151 26.195,58.498 28.227,58.498 L44.149,58.498 C44.63,58.498 45.021,58.888 45.021,59.37 C45.021,59.851 44.63,60.241 44.149,60.241 Z M44.149,53.936 L34.062,53.936 C33.581,53.936 33.19,53.546 33.19,53.064 C33.19,52.582 33.58,52.192 34.062,52.192 L44.149,52.192 C44.63,52.192 45.021,52.582 45.021,53.064 C45.021,53.546 44.63,53.936 44.149,53.936 Z M53.937,85.938 C53.937,86.419 53.547,86.81 53.065,86.81 C52.583,86.81 52.193,86.42 52.193,85.938 L52.193,75.851 C52.193,75.369 52.583,74.979 53.065,74.979 C53.547,74.979 53.937,75.369 53.937,75.851 L53.937,85.938 Z M66.935,95.458 L62.183,95.458 C60.151,95.458 58.498,93.805 58.498,91.773 L58.498,75.851 C58.498,75.369 58.888,74.979 59.37,74.979 C59.852,74.979 60.242,75.369 60.242,75.851 L60.242,91.773 C60.242,92.844 61.113,93.715 62.184,93.715 L66.936,93.715 C67.417,93.715 67.808,94.105 67.808,94.587 C67.807,95.067 67.416,95.458 66.935,95.458 Z M64.802,85.938 L64.802,75.851 C64.802,75.369 65.192,74.979 65.674,74.979 C66.156,74.979 66.546,75.369 66.546,75.851 L66.546,85.938 C66.546,86.419 66.156,86.81 65.674,86.81 C65.192,86.81 64.802,86.419 64.802,85.938 Z M73.969,73.097 C73.969,73.578 73.579,73.969 73.097,73.969 L46.903,73.969 C46.422,73.969 46.031,73.579 46.031,73.097 L46.031,46.903 C46.031,46.421 46.421,46.031 46.903,46.031 L73.098,46.031 C73.579,46.031 73.97,46.421 73.97,46.903 L73.97,73.097 L73.969,73.097 Z M85.938,67.807 L75.851,67.807 C75.37,67.807 74.979,67.417 74.979,66.935 C74.979,66.453 75.369,66.063 75.851,66.063 L85.938,66.063 C86.419,66.063 86.81,66.453 86.81,66.935 C86.81,67.417 86.419,67.807 85.938,67.807 Z M95.458,57.817 C95.458,59.849 93.805,61.502 91.773,61.502 L75.851,61.502 C75.37,61.502 74.979,61.112 74.979,60.63 C74.979,60.148 75.369,59.758 75.851,59.758 L91.773,59.758 C92.843,59.758 93.714,58.887 93.714,57.816 L93.714,53.064 C93.714,52.582 94.104,52.192 94.586,52.192 C95.067,52.192 95.458,52.582 95.458,53.064 L95.458,57.817 Z" id="Shape"></path>
            </g>
        </g>
    </g>
</svg>